<?xml version="1.0" standalone="no"?>
<!DOCTYPE svg PUBLIC "-//W3C//DTD SVG 20010904//EN"
 "http://www.w3.org/TR/2001/REC-SVG-20010904/DTD/svg10.dtd">
<svg version="1.0" xmlns="http://www.w3.org/2000/svg"
 width="1350.000000pt" height="693.000000pt" viewBox="0 0 1350.000000 693.000000"
 preserveAspectRatio="xMidYMid meet">
<metadata>
Created by potrace 1.10, written by Peter Selinger 2001-2011
</metadata>
<g transform="translate(0.000000,693.000000) scale(0.100000,-0.100000)"
fill="#000000" stroke="none">
<path d="M8397 6044 c-16 -17 -4 -49 34 -92 54 -61 75 -109 88 -203 14 -104
15 -2272 1 -2405 -11 -97 -33 -194 -51 -224 -5 -8 -12 -22 -16 -30 -4 -8 -24
-35 -45 -59 -61 -70 -57 -74 82 -86 64 -6 277 -6 375 0 17 1 49 2 73 3 64 3
63 22 -4 96 -33 35 -66 84 -75 108 -45 117 -44 96 -44 1450 l0 1286 43 63 c24
34 42 69 40 78 -3 14 -32 16 -249 19 -135 1 -248 -1 -252 -4z"/>
<path d="M9483 6032 c-72 -39 -103 -106 -103 -221 0 -113 21 -167 81 -211 48
-34 65 -36 117 -15 86 37 132 121 132 247 0 91 -18 137 -75 186 -42 37 -99 42
-152 14z"/>
<path d="M4186 6032 c-279 -3 -291 -10 -187 -110 84 -82 87 -89 55 -164 -14
-35 -39 -88 -54 -118 -57 -111 -180 -368 -180 -375 0 -4 -45 -100 -101 -214
-55 -113 -115 -235 -132 -271 -53 -113 -72 -123 -104 -57 -24 47 -93 191 -213
442 -45 94 -106 220 -135 280 -141 291 -188 401 -180 424 3 10 26 37 50 59 31
28 45 49 45 66 l0 26 -232 2 c-267 2 -489 -2 -500 -8 -19 -12 -5 -43 38 -84
71 -69 94 -126 93 -235 0 -49 -4 -112 -9 -140 -5 -27 -12 -72 -15 -100 -8 -65
-37 -247 -81 -495 -53 -300 -74 -434 -74 -467 0 -21 -4 -54 -10 -73 -5 -19
-14 -71 -19 -115 -20 -155 -32 -241 -46 -315 -8 -41 -17 -106 -20 -145 -3 -38
-10 -95 -15 -125 -13 -77 -39 -267 -43 -315 -2 -22 -10 -62 -17 -90 -47 -184
-67 -225 -147 -307 -59 -60 -63 -81 -21 -97 26 -10 524 -21 592 -14 63 7 61
29 -9 104 -77 84 -103 191 -84 351 6 51 14 129 19 173 5 44 13 109 19 145 6
36 24 160 41 275 17 116 37 244 45 285 21 114 36 207 45 290 5 41 19 134 31
205 11 72 23 146 25 165 6 49 33 210 50 301 8 42 14 86 14 99 0 22 15 93 52
250 24 99 63 190 84 190 18 0 55 -59 117 -189 139 -291 215 -448 272 -566 144
-295 197 -412 202 -441 4 -24 -6 -54 -45 -130 -27 -55 -98 -198 -156 -319 -59
-121 -112 -227 -117 -235 -5 -8 -12 -22 -15 -30 -3 -8 -19 -42 -37 -75 -43
-83 -50 -98 -99 -200 -60 -127 -69 -155 -57 -177 9 -17 38 -18 593 -18 523 0
584 2 590 16 14 37 14 38 -108 289 -95 195 -176 365 -176 370 0 2 -52 110
-115 240 -81 166 -115 245 -115 271 0 24 25 87 79 197 96 196 161 335 161 343
0 10 280 568 296 589 54 72 136 -185 228 -725 8 -47 22 -128 31 -180 9 -52 22
-131 30 -175 18 -106 33 -207 41 -275 3 -30 10 -75 15 -100 5 -25 14 -79 19
-120 5 -41 16 -122 24 -180 8 -58 19 -145 26 -195 7 -49 18 -124 26 -166 8
-42 14 -95 14 -117 0 -23 5 -73 12 -111 10 -56 9 -83 -2 -138 -17 -86 -38
-127 -95 -183 -25 -24 -45 -50 -45 -57 0 -22 48 -46 80 -39 17 3 139 6 273 6
234 1 317 9 317 32 0 5 -24 37 -54 69 -74 79 -156 248 -156 321 0 14 -5 39
-11 54 -5 16 -14 58 -19 94 -5 36 -19 130 -30 210 -12 80 -25 172 -30 205 -17
125 -40 265 -49 307 -10 44 -27 136 -56 308 -9 52 -22 129 -30 170 -8 41 -22
116 -30 165 -9 50 -21 110 -26 135 -4 25 -11 68 -14 95 -4 28 -13 82 -20 120
-7 39 -21 129 -30 200 -9 72 -20 160 -25 197 -26 178 -7 252 86 343 35 34 64
67 64 73 0 6 -10 14 -22 16 -36 8 -244 11 -482 8z m-546 -1877 c147 -302 190
-393 190 -401 0 -4 9 -27 21 -51 40 -82 59 -78 -337 -81 -280 -2 -354 0 -362
11 -8 10 -4 28 17 72 16 33 41 87 56 120 78 171 250 513 268 532 16 18 23 20
35 11 8 -7 58 -103 112 -213z"/>
<path d="M10845 5193 c-117 -37 -205 -89 -287 -170 -63 -61 -60 -62 -78 30
-17 84 -21 85 -230 85 -169 0 -230 -8 -230 -32 0 -6 23 -35 50 -65 28 -29 59
-72 70 -95 49 -102 49 -112 52 -931 3 -690 1 -774 -13 -805 -9 -19 -22 -48
-28 -65 -7 -16 -28 -52 -46 -80 -42 -63 -49 -86 -31 -110 13 -18 29 -19 267
-16 252 2 319 11 319 41 0 6 -19 30 -43 54 -52 54 -85 114 -103 187 -16 68
-30 628 -20 772 9 113 17 119 81 59 57 -53 69 -59 180 -105 70 -29 207 -34
283 -11 147 45 240 149 278 307 16 68 16 85 5 145 -16 82 -62 179 -104 220
-18 17 -57 43 -87 59 -46 23 -70 28 -149 31 -96 4 -120 -1 -211 -48 -86 -44
-136 -172 -110 -282 27 -113 72 -164 173 -193 54 -15 61 -15 110 1 32 11 64
31 85 53 29 32 32 40 32 102 0 57 -4 72 -25 97 -48 57 -104 64 -158 21 -23
-17 -27 -28 -27 -70 0 -28 7 -64 16 -81 38 -74 -55 -50 -104 26 -68 109 -13
254 111 291 145 43 278 -10 345 -139 23 -44 26 -63 27 -141 0 -177 -76 -289
-233 -340 -57 -19 -179 -18 -217 2 -11 6 -41 20 -67 32 -82 38 -187 176 -210
276 -26 115 -30 145 -24 205 23 244 197 398 476 423 36 4 83 2 105 -3 22 -5
58 -13 80 -18 133 -30 261 -169 307 -332 31 -112 38 -152 38 -233 0 -146 -40
-378 -92 -532 -5 -16 -13 -46 -17 -65 -4 -19 -13 -51 -19 -70 -6 -19 -18 -64
-27 -100 -10 -36 -23 -83 -31 -105 -8 -23 -14 -49 -14 -60 0 -11 -6 -37 -14
-60 -8 -22 -22 -76 -31 -120 -10 -44 -23 -107 -31 -140 -86 -388 -75 -682 33
-838 40 -57 79 -94 127 -120 57 -31 223 -32 282 -2 98 50 159 118 183 206 16
57 0 187 -28 233 -84 136 -282 156 -395 40 -68 -70 -61 -211 14 -264 44 -31
117 -27 157 8 42 37 56 83 41 134 -9 32 -20 44 -55 61 -52 25 -55 43 -10 51
76 14 146 -25 188 -106 23 -45 24 -86 4 -135 -20 -47 -39 -69 -90 -101 -36
-24 -50 -26 -137 -27 -91 0 -98 2 -140 30 -120 84 -142 277 -68 585 43 175 34
147 105 340 12 32 179 434 210 505 7 17 20 57 30 90 10 33 24 75 31 93 8 18
14 43 14 57 0 13 5 36 11 52 12 31 25 118 39 270 7 83 5 125 -10 230 -20 139
-26 160 -73 273 -54 129 -138 234 -262 327 -48 36 -146 83 -195 94 -19 4 -53
12 -75 18 -60 16 -251 12 -310 -6z"/>
<path d="M5690 5185 c-300 -53 -519 -222 -628 -485 -92 -224 -127 -444 -120
-758 5 -195 9 -230 44 -360 40 -151 65 -210 137 -327 39 -63 157 -180 231
-229 65 -43 169 -96 188 -96 8 0 18 -4 23 -9 42 -41 382 -66 490 -36 211 59
338 131 436 246 61 72 129 173 129 191 0 9 7 21 15 28 8 7 15 19 15 27 0 8 6
29 14 46 39 91 47 171 17 187 -11 5 -22 7 -24 3 -2 -5 -19 -35 -37 -68 -61
-110 -192 -259 -252 -285 -13 -6 -39 -20 -58 -32 -110 -66 -295 -103 -465 -92
-234 16 -421 138 -519 339 -16 33 -33 68 -37 77 -8 16 -13 33 -38 133 -5 22
-17 92 -27 155 -37 251 14 606 114 792 31 56 40 69 97 136 112 132 367 191
605 141 103 -22 203 -91 283 -195 95 -123 142 -252 153 -421 8 -119 -5 -156
-58 -167 -18 -4 -186 -6 -372 -6 -351 0 -440 -7 -507 -41 -49 -24 -107 -93
-120 -143 -13 -48 -3 -151 17 -167 8 -6 14 -17 14 -25 0 -15 50 -52 103 -76
136 -62 291 48 262 184 -16 74 -80 117 -154 102 -49 -10 -91 -65 -91 -119 0
-53 -17 -59 -43 -16 -21 37 -22 73 -1 117 21 44 66 67 172 89 71 14 126 16
400 11 174 -3 358 -9 407 -13 98 -8 111 -7 168 8 30 8 42 18 53 44 46 112 -32
523 -139 725 -104 196 -310 346 -522 381 -99 17 -293 19 -375 4z"/>
<path d="M7695 5180 c-74 -7 -91 -13 -195 -63 -45 -22 -92 -59 -154 -120 -50
-48 -95 -86 -101 -83 -7 2 -15 41 -18 93 -6 79 -10 90 -34 112 -27 23 -29 23
-199 18 -235 -7 -254 -20 -159 -103 87 -77 106 -140 125 -414 16 -229 17
-1156 2 -1288 -14 -118 -42 -219 -77 -277 -46 -75 -49 -85 -37 -97 19 -19 90
-23 339 -18 306 6 306 6 206 106 -105 106 -111 122 -128 364 -16 246 -20 875
-5 980 12 94 46 203 78 254 61 98 163 182 262 217 85 29 243 30 305 2 108 -50
170 -108 214 -203 27 -58 31 -75 31 -156 0 -138 -33 -231 -115 -322 -66 -73
-132 -104 -234 -110 -79 -4 -87 -3 -147 28 -101 52 -160 130 -170 226 -11 109
35 202 122 244 54 26 138 38 148 21 4 -6 18 -11 31 -11 28 0 80 -42 100 -81
16 -30 21 -119 6 -119 -4 0 -26 14 -47 31 -34 27 -45 30 -84 26 -129 -14 -120
-189 12 -224 100 -27 189 39 203 152 14 107 -9 177 -77 241 -116 108 -344 77
-434 -59 -98 -149 -80 -323 48 -455 74 -76 159 -110 351 -137 43 -7 46 -17 13
-60 -33 -42 -108 -171 -128 -220 -50 -117 -44 -207 17 -245 48 -30 81 -26 122
15 32 32 35 40 30 73 -5 27 -17 47 -47 72 -22 20 -40 44 -40 54 0 25 41 105
95 186 25 36 104 128 176 203 232 243 252 280 275 524 18 190 -83 412 -241
530 -59 44 -169 85 -255 94 -84 9 -87 9 -185 -1z"/>
<path d="M9263 5122 c-54 -5 -48 -37 20 -108 97 -99 92 -52 92 -934 0 -899 -1
-910 -90 -1044 -40 -61 -41 -92 -1 -102 13 -3 119 -4 237 -2 211 3 269 12 269
41 0 5 -16 34 -36 64 -65 98 -72 131 -83 419 -15 344 -12 1302 3 1414 8 58 22
105 44 149 39 78 39 89 5 102 -24 9 -368 10 -460 1z"/>
<path d="M11660 3019 c-13 -8 -12 -12 8 -26 18 -13 22 -25 22 -74 0 -52 12
-81 27 -65 3 3 7 31 8 62 1 46 6 60 25 74 13 10 20 22 16 29 -9 14 -86 14
-106 0z"/>
<path d="M11841 3020 c-10 -6 -14 -23 -13 -52 5 -102 22 -147 37 -98 3 11 11
20 17 20 5 0 12 -9 15 -20 3 -13 14 -20 29 -20 18 0 25 7 32 33 10 40 25 41
32 3 3 -16 11 -31 18 -34 9 -3 12 18 12 82 0 46 -4 87 -8 90 -14 9 -35 -12
-56 -56 -12 -23 -27 -43 -34 -43 -8 0 -20 18 -27 39 -17 49 -35 68 -54 56z"/>
<path d="M11988 923 c-33 -5 -43 -29 -23 -59 12 -19 15 -60 15 -217 0 -130 -4
-197 -11 -204 -7 -7 -9 -19 -6 -27 5 -12 21 -16 64 -16 73 0 91 10 76 42 -7
14 -14 114 -18 248 -4 124 -9 228 -12 233 -4 7 -37 7 -85 0z"/>
<path d="M12788 923 c-22 -6 -23 -26 -3 -43 23 -19 22 -396 -2 -429 -15 -22
-15 -25 2 -37 20 -15 150 -13 166 3 5 5 2 21 -6 37 -11 20 -17 79 -21 205 -6
156 -5 182 11 214 9 20 14 41 10 46 -6 11 -122 13 -157 4z"/>
<path d="M13014 915 c-3 -8 1 -24 10 -37 24 -34 24 -393 0 -419 -32 -36 -11
-49 75 -49 86 0 104 10 76 40 -15 17 -18 44 -18 220 0 171 2 203 16 218 27 29
3 42 -80 42 -55 0 -75 -4 -79 -15z"/>
<path d="M10754 893 c-28 -42 -42 -66 -54 -91 -5 -13 -22 -49 -36 -80 -51
-111 -80 -185 -88 -222 -3 -14 -14 -35 -26 -47 -27 -30 -25 -52 5 -58 14 -3
36 -7 49 -10 36 -7 73 33 46 50 -18 11 -11 84 10 105 17 17 33 20 105 20 77 0
86 -2 99 -23 15 -22 19 -52 14 -112 l-3 -30 77 0 c84 0 111 12 92 43 -6 9 -33
69 -59 132 -86 204 -169 350 -199 350 -8 0 -22 -12 -32 -27z m32 -170 c3 -10
12 -31 21 -46 24 -45 12 -59 -49 -55 -52 3 -53 3 -52 34 3 62 65 114 80 67z"/>
<path d="M9523 895 c-38 -16 -37 -13 -18 -63 13 -32 15 -73 12 -218 -2 -98 -6
-190 -8 -204 -4 -25 -3 -25 66 -25 77 0 75 -4 55 75 -14 55 -5 148 17 172 22
25 59 23 77 -4 19 -27 22 -178 5 -210 -15 -28 2 -38 66 -38 71 0 81 9 67 58
-7 22 -12 69 -12 104 0 146 -48 195 -170 171 -59 -12 -60 -11 -60 96 0 103
-20 120 -97 86z"/>
<path d="M9040 892 c-61 -4 -80 -14 -80 -47 0 -36 25 -51 53 -32 35 22 116 33
121 16 3 -8 7 -91 10 -185 6 -168 1 -219 -26 -235 -6 -4 -7 -12 -4 -18 7 -11
178 -16 189 -5 3 3 -4 22 -16 42 -20 34 -22 52 -23 207 -1 94 3 178 8 188 12
23 64 22 111 -3 46 -25 57 -20 57 25 0 24 -6 38 -21 45 -19 10 -213 11 -379 2z"/>
<path d="M5971 879 c-47 -19 -53 -29 -35 -57 13 -20 16 -53 15 -194 -1 -191 7
-225 61 -258 64 -39 201 -19 250 36 10 11 26 41 38 66 16 37 19 55 12 85 -27
118 -106 168 -209 131 -18 -6 -35 -9 -39 -6 -3 3 -7 47 -9 96 -2 50 -6 95 -10
101 -8 13 -41 13 -74 0z m184 -255 c47 -19 62 -143 22 -190 -28 -32 -70 -35
-97 -8 -14 14 -20 37 -22 88 -2 64 -1 70 25 92 29 25 44 28 72 18z"/>
<path d="M6376 869 c-25 -20 -26 -23 -11 -39 14 -16 16 -48 15 -232 -1 -117
-1 -219 -1 -225 1 -9 18 -13 54 -13 74 0 81 7 69 66 -5 27 -10 129 -11 226 -3
219 -6 232 -52 236 -24 2 -44 -4 -63 -19z"/>
<path d="M7515 880 c-4 -6 2 -25 13 -43 17 -28 20 -54 21 -211 1 -149 -1 -183
-15 -203 -28 -43 -13 -53 76 -53 66 0 82 3 87 16 4 10 -1 22 -11 29 -13 10
-17 29 -17 89 0 46 4 83 11 92 14 16 95 19 134 4 47 -17 79 17 56 59 -10 19
-17 20 -99 14 -81 -5 -90 -4 -98 13 -13 26 -9 122 6 137 18 18 156 13 187 -8
14 -9 32 -14 40 -11 16 6 18 39 4 67 -10 18 -23 19 -200 19 -117 0 -191 -4
-195 -10z"/>
<path d="M597 828 c-24 -33 -127 -242 -127 -259 0 -4 -6 -23 -14 -41 -8 -18
-22 -53 -32 -78 -10 -25 -24 -53 -32 -62 -25 -30 1 -50 62 -46 48 3 51 4 47
28 -8 57 -5 110 7 122 17 17 175 16 196 -1 8 -7 20 -28 26 -47 10 -28 9 -39
-3 -58 -12 -17 -13 -26 -4 -35 12 -12 124 -15 151 -5 20 8 21 38 2 53 -8 6
-16 22 -19 34 -7 29 -39 114 -65 168 -11 24 -37 80 -57 124 -66 143 -93 163
-138 103z m42 -171 c12 -24 21 -53 21 -65 0 -20 -5 -22 -50 -22 -49 0 -50 0
-50 31 0 32 34 99 50 99 4 0 18 -19 29 -43z"/>
<path d="M1193 845 c-3 -9 2 -24 11 -34 15 -17 17 -42 14 -213 -3 -167 -5
-197 -20 -212 -30 -29 -12 -46 48 -46 61 0 79 17 50 49 -13 14 -16 42 -16 147
0 71 4 135 9 143 6 10 26 -22 69 -110 33 -68 62 -132 65 -141 4 -11 16 -18 31
-18 20 0 31 15 75 104 28 57 51 108 51 113 0 12 38 48 45 42 2 -3 7 -60 11
-127 7 -115 6 -125 -14 -151 -15 -21 -18 -31 -9 -40 11 -11 134 -15 161 -5 20
8 21 28 3 43 -9 7 -17 50 -22 123 -16 211 -15 260 6 296 10 18 19 37 19 43 0
5 -36 9 -80 9 l-80 0 -35 -75 c-19 -42 -35 -81 -35 -88 -1 -22 -47 -92 -60
-92 -8 0 -22 16 -31 35 -9 19 -27 54 -38 78 -12 23 -21 47 -21 53 0 5 -11 27
-25 49 l-25 40 -75 0 c-59 0 -77 -3 -82 -15z"/>
<path d="M3828 838 c-27 -41 -115 -231 -148 -318 -18 -47 -41 -102 -52 -123
-19 -36 -19 -37 -1 -44 27 -11 91 -9 103 3 7 7 6 20 -2 40 -11 30 -7 66 12 94
12 19 152 30 182 14 11 -6 26 -28 34 -49 11 -32 11 -43 -1 -65 -8 -15 -11 -30
-8 -34 10 -10 171 -7 177 3 3 5 -8 36 -24 69 -17 34 -30 67 -30 74 0 15 -85
193 -144 303 -32 59 -72 73 -98 33z m41 -181 c34 -62 27 -81 -32 -85 -55 -4
-66 10 -46 61 13 33 37 67 48 67 4 0 17 -19 30 -43z"/>
<path d="M11128 723 c-41 -16 -45 -27 -23 -57 12 -16 15 -54 15 -177 0 -95 -4
-160 -10 -164 -37 -23 27 -61 86 -52 55 9 65 22 47 57 -8 17 -11 39 -8 50 6
18 12 20 56 14 75 -10 127 21 172 103 36 66 4 188 -61 226 -37 21 -101 22
-128 2 -25 -19 -60 -19 -68 0 -7 19 -30 18 -78 -2z m211 -89 c56 -71 -8 -212
-79 -174 -26 14 -34 47 -28 117 3 39 10 60 23 69 29 21 62 17 84 -12z"/>
<path d="M11556 725 c-10 -8 -24 -16 -29 -18 -7 -2 -5 -16 6 -39 13 -29 17
-65 17 -176 0 -78 -4 -152 -10 -166 -8 -21 -6 -27 10 -36 25 -13 96 -13 121 1
19 10 20 12 4 29 -10 11 -15 31 -13 51 l3 32 70 1 c58 1 76 5 100 24 52 41 65
70 65 146 0 73 -20 121 -63 151 -29 20 -112 19 -148 -2 -26 -16 -29 -16 -47 0
-23 21 -60 21 -86 2z m198 -70 c24 -18 37 -96 24 -142 -11 -39 -37 -55 -81
-51 l-32 3 -3 78 c-3 71 -1 79 22 102 29 28 43 30 70 10z"/>
<path d="M12238 722 c-65 -43 -97 -124 -79 -199 16 -64 52 -99 120 -119 46
-13 65 -14 106 -5 50 12 105 53 105 78 0 18 -20 16 -68 -7 -36 -18 -48 -19
-82 -10 -64 17 -79 70 -21 70 16 0 54 11 85 25 45 20 60 33 71 60 17 40 8 76
-28 106 -31 26 -170 27 -209 1z m132 -68 c0 -41 -38 -70 -87 -65 -24 2 -13 49
18 80 26 26 33 29 50 18 10 -6 19 -21 19 -33z"/>
<path d="M10040 718 c-102 -29 -152 -165 -95 -262 32 -55 77 -76 161 -76 52 0
72 5 104 25 24 15 40 33 40 45 0 28 -13 31 -48 9 -45 -27 -104 -25 -138 5
l-28 23 31 16 c17 9 49 19 72 23 27 4 52 18 76 41 97 94 -20 195 -175 151z
m74 -44 c11 -4 16 -19 16 -44 0 -33 -4 -40 -35 -54 -19 -10 -40 -14 -45 -11
-17 11 -11 61 11 89 22 27 28 30 53 20z"/>
<path d="M6680 689 c-56 -25 -74 -42 -100 -91 -33 -64 -20 -151 30 -196 30
-27 96 -52 138 -52 67 0 152 43 152 77 0 24 -28 26 -59 4 -38 -27 -94 -28
-121 -1 -34 34 -20 55 46 65 82 14 145 81 130 140 -15 60 -135 90 -216 54z
m98 -51 c32 -32 -16 -98 -69 -98 -23 0 -29 4 -29 23 0 22 24 65 44 79 16 11
41 9 54 -4z"/>
<path d="M6993 690 c-24 -11 -43 -21 -43 -22 0 -2 9 -21 20 -43 15 -30 20 -59
20 -122 0 -45 -4 -85 -10 -88 -18 -11 -11 -33 13 -41 29 -10 129 -5 141 7 6 5
1 18 -12 32 -30 32 -31 125 -1 173 18 29 26 34 60 34 45 0 57 17 43 59 -12 34
-55 40 -90 12 -33 -26 -50 -26 -64 -1 -13 24 -23 24 -77 0z"/>
<path d="M8070 688 c-50 -34 -72 -71 -78 -126 -13 -136 82 -213 235 -191 50 8
63 15 94 49 74 81 65 197 -22 259 -38 28 -49 31 -119 31 -63 0 -83 -4 -110
-22z m136 -37 c43 -26 62 -95 45 -160 -28 -110 -118 -104 -147 10 -11 44 -11
56 3 92 14 36 47 76 63 77 3 0 19 -9 36 -19z"/>
<path d="M8448 692 c-33 -20 -34 -26 -8 -59 16 -21 20 -41 20 -112 0 -60 -5
-93 -15 -107 -8 -12 -11 -24 -8 -28 8 -8 158 -8 166 0 3 4 -3 18 -13 32 -25
31 -27 129 -5 172 14 27 21 30 61 30 l45 0 -3 43 c-3 41 -4 42 -41 45 -24 2
-43 -2 -53 -12 -19 -20 -38 -20 -54 -1 -16 20 -58 19 -92 -3z"/>
<path d="M4268 687 c-53 -17 -77 -45 -84 -97 -5 -40 -3 -48 21 -72 27 -28 61
-41 127 -53 22 -3 42 -14 48 -25 9 -16 6 -22 -19 -34 -36 -19 -81 -7 -124 33
-22 20 -31 23 -45 15 -28 -18 -25 -43 8 -74 59 -56 189 -53 247 5 27 27 33 41
33 74 0 61 -37 96 -125 119 -55 15 -70 23 -70 38 0 29 63 31 115 4 27 -14 46
-18 52 -12 17 17 4 56 -22 69 -39 18 -121 23 -162 10z"/>
<path d="M4602 679 c-57 -29 -77 -71 -60 -125 10 -31 22 -43 58 -61 25 -12 59
-22 77 -23 29 0 63 -21 63 -39 0 -40 -98 -37 -142 4 -32 30 -64 32 -73 6 -16
-51 47 -91 149 -94 59 -2 77 2 109 21 55 35 70 121 29 165 -22 23 -110 57
-150 57 -25 0 -34 12 -26 34 11 28 54 31 100 7 48 -26 79 -25 79 3 0 57 -134
85 -213 45z"/>
<path d="M5017 686 c-71 -22 -127 -98 -127 -171 0 -40 18 -94 39 -116 66 -68
242 -65 300 5 27 33 -12 48 -54 20 -29 -19 -108 -22 -130 -4 -33 28 -18 47 54
69 45 14 80 32 100 52 91 91 -35 191 -182 145z m90 -73 c14 -21 13 -25 -15
-53 -55 -54 -99 -32 -68 34 24 51 57 59 83 19z"/>
<path d="M5342 678 c-38 -10 -49 -30 -33 -61 10 -21 17 -184 10 -237 -4 -24
-3 -25 61 -25 74 0 70 -6 55 102 -10 71 0 120 31 140 24 15 26 15 47 -6 19
-19 22 -32 21 -104 -1 -45 -3 -93 -5 -107 -4 -25 -3 -25 61 -25 l65 0 -2 30
c-1 17 -5 63 -9 102 -5 59 -4 77 10 98 23 34 57 33 79 -4 19 -32 24 -165 7
-176 -12 -8 -13 -42 -1 -49 5 -3 37 -3 71 1 l62 6 -8 46 c-4 25 -8 64 -9 86
-2 81 -17 142 -42 169 -31 34 -99 36 -150 5 -32 -20 -35 -20 -52 -5 -29 26
-85 31 -136 11 -30 -11 -50 -14 -58 -8 -22 17 -41 20 -75 11z"/>
<path d="M1884 659 c-14 -16 -16 -24 -7 -37 12 -19 34 -20 79 -1 26 10 37 10
63 -1 47 -19 37 -43 -24 -55 -55 -11 -89 -27 -122 -58 -30 -27 -33 -115 -5
-139 35 -31 89 -43 137 -30 26 7 69 9 103 6 37 -4 67 -2 80 5 21 11 21 13 7
41 -9 18 -15 56 -15 99 0 88 -21 144 -65 171 -26 16 -50 20 -122 20 -78 0 -92
-3 -109 -21z m178 -164 c9 -43 -3 -76 -30 -86 -70 -27 -101 59 -34 96 40 21
59 18 64 -10z"/>
<path d="M2355 663 c-78 -42 -105 -82 -105 -158 0 -110 69 -175 184 -175 78 0
170 60 139 91 -8 8 -24 4 -62 -17 -50 -29 -51 -29 -84 -11 -43 24 -67 65 -67
117 0 89 68 144 128 102 27 -20 45 -26 70 -23 22 2 13 49 -14 70 -34 27 -143
29 -189 4z"/>
<path d="M2668 659 l-37 -19 23 -43 c19 -36 22 -56 20 -120 -1 -43 -7 -84 -14
-92 -25 -30 -4 -45 64 -45 97 0 115 11 76 50 -15 15 -20 33 -20 78 0 79 24
115 82 122 38 4 43 8 46 33 2 16 -2 35 -9 43 -15 18 -64 18 -83 -1 -8 -8 -23
-15 -34 -15 -11 0 -25 7 -32 15 -16 20 -37 18 -82 -6z"/>
<path d="M3045 661 c-73 -44 -94 -92 -86 -196 10 -133 229 -183 328 -76 74 81
62 195 -29 261 -36 27 -49 30 -112 30 -52 0 -79 -5 -101 -19z m129 -41 c66
-25 57 -219 -12 -237 -42 -10 -69 11 -86 69 -18 62 -7 132 26 161 23 19 36 21
72 7z"/>
</g>
</svg>
